<!-- Generated by IcoMoon.io -->
<svg version="1.1" xmlns="http://www.w3.org/2000/svg" width="640" height="640" viewBox="0 0 640 640">
<title></title>
<g id="icomoon-ignore">
</g>
<path d="M421.76 361.888c-22.976 0-41.6 25.824-41.6 57.568 0 31.808 18.624 57.632 41.6 57.632s41.6-25.824 41.6-57.632c-0.032-31.744-18.624-57.568-41.6-57.568zM566.592 212.032c4.768-11.68 4.96-78.048-20.32-141.632 0 0-57.952 6.368-145.632 66.56-18.4-5.12-49.536-7.616-80.608-7.616-31.136 0-62.24 2.496-80.64 7.616-87.712-60.192-145.664-66.56-145.664-66.56-25.248 63.584-24.992 129.952-20.288 141.632-29.696 32.256-47.84 71.008-47.84 123.872 0 229.952 190.816 233.632 238.944 233.632 10.944 0 32.576 0.064 55.488 0.064 22.88 0 44.544-0.064 55.424-0.064 48.192 0 238.944-3.68 238.944-233.632 0-52.864-18.112-91.616-47.808-123.872zM320.896 541.28h-1.792c-120.672 0-214.688-14.368-214.688-131.68 0-28.128 9.92-54.176 33.504-75.808 39.264-36.064 105.76-16.992 181.184-16.992 0.32 0 0.64 0 0.928 0 0.32 0 0.576 0 0.864 0 75.424 0 141.952-19.072 181.248 16.992 23.52 21.632 33.44 47.68 33.44 75.808 0 117.312-93.984 131.68-214.688 131.68zM218.272 361.888c-22.976 0-41.6 25.824-41.6 57.568 0 31.808 18.624 57.632 41.6 57.632 23.008 0 41.632-25.824 41.632-57.632 0-31.744-18.624-57.568-41.632-57.568z"></path>
</svg>
