<!-- Generated by IcoMoon.io -->
<svg version="1.1" xmlns="http://www.w3.org/2000/svg" width="640" height="640" viewBox="0 0 640 640">
<title></title>
<g id="icomoon-ignore">
</g>
<path d="M160 96c0 33.984-22.72 63.232-64.032 63.232-38.88 0-63.968-27.584-63.968-61.568 0-34.88 24.32-65.664 64-65.664s63.232 29.12 64 64zM32 608v-416h128v416h-128z"></path>
<path d="M224 334.208c0-49.44-1.632-90.752-3.264-126.432h115.008l5.696 55.136h2.432c16.192-25.952 55.872-64 122.304-64 81.024 0 141.824 54.24 141.824 170.944v238.144h-128v-219.552c0-51.008-19.424-89.92-64-89.92-33.984 0-51.008 27.52-59.936 50.208-3.264 8.128-4.064 19.456-4.064 30.816v228.448h-128v-273.792z"></path>
</svg>
