<!-- Generated by IcoMoon.io -->
<svg version="1.1" xmlns="http://www.w3.org/2000/svg" width="640" height="640" viewBox="0 0 640 640">
<title></title>
<g id="icomoon-ignore">
</g>
<path d="M554.112 199.872c0.256 5.184 0.352 10.432 0.352 15.616 0 159.68-121.504 343.744-343.68 343.744-68.256 0-131.712-20-185.184-54.304 9.472 1.12 19.072 1.696 28.8 1.696 56.64 0 108.704-19.328 150.016-51.68-52.832-0.992-97.472-35.872-112.832-83.872 7.36 1.376 14.944 2.112 22.72 2.112 11.040 0 21.728-1.44 31.84-4.192-55.264-11.136-96.896-59.936-96.896-118.496 0-0.512 0-0.992 0-1.504 16.288 9.056 34.944 14.496 54.72 15.136-32.416-21.696-53.76-58.624-53.76-100.576 0-22.112 5.952-42.88 16.384-60.736 59.552 73.12 148.608 121.184 248.992 126.24-2.048-8.864-3.104-18.048-3.104-27.552 0-66.688 54.048-120.736 120.768-120.736 34.752 0 66.144 14.624 88.192 38.112 27.488-5.44 53.344-15.488 76.704-29.312-9.024 28.192-28.192 51.872-53.12 66.816 24.448-2.944 47.68-9.376 69.376-19.008-16.192 24.256-36.672 45.504-60.288 62.496z"></path>
</svg>
